<svg width="853" height="968" viewBox="0 0 853 968" fill="none" xmlns="http://www.w3.org/2000/svg">
<path d="M0 770.097L127.109 881.251L471.738 903.056L618.524 968.472H0V770.097Z" fill="#7FA9A0"/>
<path d="M141 688L212.798 774.689L353.734 819.629L513.285 813.513L852.064 891.693V967.745H677.622L492.543 874.674L322.356 867.76L180.888 803.408L141 688Z" fill="#C2DAD2"/>
<path d="M73.3933 537.685L193.588 588.21L298.891 700.959L446.21 677.026H718.509L852 700.959V856.786L485.566 780.202H350.479L223.903 745.633L157.955 660.007L97.8577 641.925L139.341 764.779L84.03 730.741L24.9963 599.91L73.3933 537.685Z" fill="#BBD5D0"/>
<path d="M0 43.0787L10.6367 137.213L32.4419 0L38.824 16.4869L27.6554 302.614L56.3745 248.899L27.6554 332.929L17.5506 588.742L0 566.404V43.0787Z" fill="#7B5F57"/>
<path d="M62.7565 12.2322L77.6479 188.801L104.772 18.0824L112.749 44.6741L96.794 248.367L130.3 158.487L96.794 299.423V540.345L77.6479 518.007L42.015 561.086L53.1835 407.918L42.015 344.097L62.7565 382.389V12.2322Z" fill="#675752"/>
<path d="M130.3 265.386L147.584 157.157L122.588 71.266L151.573 132.959L164.869 48.929L158.487 304.476L210.607 206.884L158.487 354.734L152.105 565.341L101.049 544.068L122.588 314.049L77.1161 93.6031L130.3 265.386Z" fill="#7A5F57"/>
<path d="M164.337 530.771L360.584 577.041L719.041 661.603H449.401L305.805 675.962L227.094 592.996L164.337 561.618V530.771Z" fill="#D2DCD0"/>
<path d="M216.028 424.936L211.139 404.195L219.963 396.228L216.028 424.936Z" fill="white"/>
<path d="M171.783 508.434L852 661.071V697.768L736.592 670.644L724.36 651.498L163.805 520.135L171.783 508.434Z" fill="#D1CC9E"/>
<path d="M207.416 403.663L290.382 346.757L382.921 342.502L497.266 379.198L590.337 439.828L723.296 540.345L816.899 618.524V647.775L698.831 618.524L654.689 568.532L571.723 487.693L488.757 427.595L378.135 384.517L278.682 391.963L222.307 427.595L189.333 475.461L158.487 519.603V475.461L207.416 403.663Z" fill="#D1CC9E"/>
<path d="M341.438 340.906L426 330.27L511.625 340.906L595.124 378.667L726.487 464.292L852 562.682V656.816L839.236 570.127L739.783 495.67L606.824 397.813L511.625 353.139L418.554 336.652L341.438 340.906Z" fill="#D1CC9E"/>
<path d="M216.989 440.891L224.434 427.595L228.689 424.936L222.839 517.476L210.607 515.348L216.989 440.891Z" fill="#D1CC9E"/>
<path d="M270.172 399.94L279.213 394.09H284.532L276.022 529.176L262.195 525.985L270.172 399.94Z" fill="#D1CC9E"/>
<path d="M364.307 388.772L377.603 386.644L382.921 388.772L373.348 549.386L347.82 544.599L364.307 388.772Z" fill="#D1CC9E"/>
<path d="M458.974 421.745L476.524 427.064L483.438 431.85L476.524 573.318L446.742 566.405L458.974 421.745Z" fill="#D1CC9E"/>
<path d="M556.831 483.97L568 490.884L588.21 510.562V596.187L546.727 587.146L556.831 483.97Z" fill="#D1CC9E"/>
<path d="M290.382 383.985L278.024 386.12L291.727 357.057L290.382 383.985Z" fill="white"/>
<path d="M257.912 398.968L248.367 405.258L251.354 382.597L257.912 398.968Z" fill="white"/>
<path d="M228.763 415.987L219.219 422.277L222.206 399.616L228.763 415.987Z" fill="white"/>
<path d="M203.161 444.614L197.551 453.638L193.588 429.191L203.161 444.614Z" fill="white"/>
<path d="M179.664 480.285L174.369 489.497L169.563 465.202L179.664 480.285Z" fill="white"/>
<path d="M274.427 386.112L269.64 370.157L290.775 350.92L274.427 386.112Z" fill="white"/>
<path d="M245.176 407.918L238.794 388.772L249.111 379.209L245.176 407.918Z" fill="white"/>
<path d="M194.652 458.442L184.015 440.891L190.952 430.255L194.652 458.442Z" fill="white"/>
<path d="M171.783 494.075L161.146 476.524L166.827 468.547L171.783 494.075Z" fill="white"/>
<path d="M299.423 351.011L318.037 349.948L315.378 383.453L299.423 351.011Z" fill="white"/>
<path d="M254.276 376.901L265.048 371.183L271.236 388.24L254.276 376.901Z" fill="white"/>
<path d="M225.127 397.111L235.9 391.393L242.088 408.449L225.127 397.111Z" fill="white"/>
<path d="M196.779 422.812L207.948 410.045L211.935 430.85L196.779 422.812Z" fill="white"/>
<path d="M172.532 458.716L183.252 445.571L191.993 460.569L172.532 458.716Z" fill="white"/>
<path d="M160.082 508.966L159.846 480.702L168.586 495.701L160.082 508.966Z" fill="white"/>
<path d="M326.519 382.542L345.134 383.559L342.474 351.519L326.519 382.542Z" fill="white"/>
<path d="M353.111 349.694L378.135 347.288L369.625 382.39L353.111 349.694Z" fill="white"/>
<path d="M406.551 357.546L384.517 349.416L381.326 380.262L406.551 357.546Z" fill="white"/>
<path d="M426.484 396.415L404.24 388.806L421.457 362.72L426.484 396.415Z" fill="white"/>
<path d="M465.393 378.948L445.285 372.005L439.464 397.275L465.393 378.948Z" fill="white"/>
<path d="M529.708 409.513L503.648 393.558L499.03 427.058L529.708 409.513Z" fill="white"/>
<path d="M614.418 466.424L590.341 447.609L568.532 473.333L614.418 466.424Z" fill="white"/>
<path d="M694.647 536.99L668.269 514.167L641.938 542.252L694.647 536.99Z" fill="white"/>
<path d="M776.549 612.511L750.172 589.688L723.841 617.773L776.549 612.511Z" fill="white"/>
<path d="M544.496 420.795L577.959 444.594L560.538 466.08L544.496 420.795Z" fill="white"/>
<path d="M627.827 479.315L658.367 506.765L638.615 526.13L627.827 479.315Z" fill="white"/>
<path d="M709.2 552.451L742.454 585.488L718.832 606.441L709.2 552.451Z" fill="white"/>
<path d="M490.884 420.682L474.728 414.086L475.495 385.351L490.884 420.682Z" fill="white"/>
<path d="M311.59 383.22L295.132 384.935L295.132 351.011L311.59 383.22Z" fill="white"/>
<path d="M270.172 389.835L260.067 397.281L251.726 378.073L270.172 389.835Z" fill="white"/>
<path d="M241.024 410.045L230.919 417.491L222.577 398.283L241.024 410.045Z" fill="white"/>
<path d="M211.496 432.572L205.616 441.488L195.139 424.38L211.496 432.572Z" fill="white"/>
<path d="M190.929 463.76L182.009 477.076L170.946 460.34L190.929 463.76Z" fill="white"/>
<path d="M338.686 351.742L322.228 350.103L322.228 382.542L338.686 351.742Z" fill="white"/>
<path d="M365.278 381.903L348.82 383.618L348.82 349.694L365.278 381.903Z" fill="white"/>
<path d="M385.049 381.326L399.408 387.176L411.64 361.116L385.049 381.326Z" fill="white"/>
<path d="M425.018 364.247L439.866 368.775L432.701 396.852L425.018 364.247Z" fill="white"/>
<path d="M443.141 399.428L467.161 409.75L469.596 382.04L443.141 399.428Z" fill="white"/>
<path d="M502.707 429.211L523.858 445.146L533.431 411.64L502.707 429.211Z" fill="white"/>
<path d="M579.168 478.652L596.719 493.543L617.875 468.961L579.168 478.652Z" fill="white"/>
<path d="M653.762 548.922L672.923 566.9L698.443 540.08L653.762 548.922Z" fill="white"/>
<path d="M735.665 624.442L780.346 633.416L780.346 615.6L735.665 624.442Z" fill="white"/>
<path d="M555.879 462.675L526.8 444.779L539.813 417.323L555.879 462.675Z" fill="white"/>
<path d="M631.288 529.708L607.519 501.131L623.569 475.333L631.288 529.708Z" fill="white"/>
<path d="M710.274 610.102L684.803 576.166L704.572 547.669L710.274 610.102Z" fill="white"/>
<path d="M478.396 383.38L494.075 387.176L494.075 419.086L478.396 383.38Z" fill="white"/>
<path d="M388.24 342.502L418.554 337.11L429.191 339.311L398.345 345.693L388.24 342.502Z" fill="#D1CC9E"/>
<path d="M498.33 351.543L508.966 353.139L521.198 359.521L491.948 376.539L485.566 373.348L471.738 368.562L498.33 351.543Z" fill="#D1CC9E"/>
<path d="M581.828 430.932L615.333 405.258L624.906 411.64L635.011 421.213L602.569 446.355L593.528 438.377L581.828 430.932Z" fill="#D1CC9E"/>
<path d="M692.449 515.348L723.296 486.097L732.869 491.416L742.442 499.925L711.064 529.176L702.022 521.199L692.449 515.348Z" fill="#D1CC9E"/>
<path d="M777.011 583.476L815.835 555.768L825.408 561.086L833.918 569.117L793.498 596.719L786.584 589.273L777.011 583.476Z" fill="#D1CC9E"/>
<path d="M0 584.487L63.2884 750.419L139.873 819.026L277.086 866.359L131.363 853.064L0 750.419V584.487Z" fill="#9FCABF"/>
</svg>
