<svg width="329" height="42" viewBox="0 0 329 42" fill="none" xmlns="http://www.w3.org/2000/svg">
<path d="M5.952 9.08V18.896C5.952 19.808 6.16 20.512 6.576 21.008C7.008 21.504 7.656 21.752 8.52 21.752C9.384 21.752 10.032 21.504 10.464 21.008C10.912 20.496 11.136 19.792 11.136 18.896V9.08H15.84V18.896C15.84 20.448 15.512 21.776 14.856 22.88C14.2 23.968 13.304 24.792 12.168 25.352C11.048 25.896 9.8 26.168 8.424 26.168C7.048 26.168 5.816 25.896 4.728 25.352C3.656 24.792 2.808 23.968 2.184 22.88C1.576 21.792 1.272 20.464 1.272 18.896V9.08H5.952ZM28.8219 15.728V19.64H17.9499V15.728H28.8219ZM47.4489 9.08V26H42.7449V19.208H37.0089V26H32.3049V9.08H37.0089V15.44H42.7449V9.08H47.4489ZM56.4049 26.168C55.0609 26.168 53.8529 25.888 52.7809 25.328C51.7249 24.768 50.8929 23.968 50.2849 22.928C49.6769 21.888 49.3729 20.664 49.3729 19.256C49.3729 17.864 49.6769 16.648 50.2849 15.608C50.9089 14.568 51.7489 13.768 52.8049 13.208C53.8769 12.648 55.0849 12.368 56.4289 12.368C57.7729 12.368 58.9729 12.648 60.0289 13.208C61.1009 13.768 61.9409 14.568 62.5489 15.608C63.1729 16.648 63.4849 17.864 63.4849 19.256C63.4849 20.648 63.1729 21.872 62.5489 22.928C61.9409 23.968 61.1009 24.768 60.0289 25.328C58.9569 25.888 57.7489 26.168 56.4049 26.168ZM56.4049 22.088C57.0609 22.088 57.6049 21.848 58.0369 21.368C58.4849 20.872 58.7089 20.168 58.7089 19.256C58.7089 18.344 58.4849 17.648 58.0369 17.168C57.6049 16.688 57.0689 16.448 56.4289 16.448C55.7889 16.448 55.2529 16.688 54.8209 17.168C54.3889 17.648 54.1729 18.344 54.1729 19.256C54.1729 20.184 54.3809 20.888 54.7969 21.368C55.2129 21.848 55.7489 22.088 56.4049 22.088ZM82.9907 12.416C84.6867 12.416 86.0147 12.928 86.9747 13.952C87.9507 14.976 88.4387 16.376 88.4387 18.152V26H83.7347V18.776C83.7347 18.056 83.5347 17.496 83.1347 17.096C82.7347 16.696 82.1907 16.496 81.5027 16.496C80.8147 16.496 80.2707 16.696 79.8707 17.096C79.4707 17.496 79.2707 18.056 79.2707 18.776V26H74.5667V18.776C74.5667 18.056 74.3667 17.496 73.9667 17.096C73.5827 16.696 73.0467 16.496 72.3587 16.496C71.6547 16.496 71.1027 16.696 70.7027 17.096C70.3027 17.496 70.1027 18.056 70.1027 18.776V26H65.3987V12.536H70.1027V14.312C70.5187 13.736 71.0547 13.28 71.7107 12.944C72.3827 12.592 73.1507 12.416 74.0147 12.416C75.0067 12.416 75.8867 12.632 76.6547 13.064C77.4387 13.496 78.0547 14.104 78.5027 14.888C78.9827 14.152 79.6147 13.56 80.3987 13.112C81.1827 12.648 82.0467 12.416 82.9907 12.416ZM103.88 19.112C103.88 19.48 103.856 19.848 103.808 20.216H94.9039C94.9519 20.952 95.1519 21.504 95.5039 21.872C95.8719 22.224 96.3359 22.4 96.8959 22.4C97.6799 22.4 98.2399 22.048 98.5759 21.344H103.592C103.384 22.272 102.976 23.104 102.368 23.84C101.776 24.56 101.024 25.128 100.112 25.544C99.1999 25.96 98.1919 26.168 97.0879 26.168C95.7599 26.168 94.5759 25.888 93.5359 25.328C92.5119 24.768 91.7039 23.968 91.1119 22.928C90.5359 21.888 90.2479 20.664 90.2479 19.256C90.2479 17.848 90.5359 16.632 91.1119 15.608C91.6879 14.568 92.4879 13.768 93.5119 13.208C94.5519 12.648 95.7439 12.368 97.0879 12.368C98.4159 12.368 99.5919 12.64 100.616 13.184C101.64 13.728 102.44 14.512 103.016 15.536C103.592 16.544 103.88 17.736 103.88 19.112ZM99.0799 17.936C99.0799 17.36 98.8879 16.912 98.5039 16.592C98.1199 16.256 97.6399 16.088 97.0639 16.088C96.4879 16.088 96.0159 16.248 95.6479 16.568C95.2799 16.872 95.0399 17.328 94.9279 17.936H99.0799ZM111.541 26.168C110.325 26.168 109.237 25.968 108.277 25.568C107.333 25.152 106.581 24.592 106.021 23.888C105.477 23.168 105.173 22.36 105.109 21.464H109.669C109.733 21.896 109.933 22.232 110.269 22.472C110.605 22.712 111.021 22.832 111.517 22.832C111.901 22.832 112.205 22.752 112.429 22.592C112.653 22.432 112.765 22.224 112.765 21.968C112.765 21.632 112.581 21.384 112.213 21.224C111.845 21.064 111.237 20.888 110.389 20.696C109.429 20.504 108.629 20.288 107.989 20.048C107.349 19.808 106.789 19.416 106.309 18.872C105.845 18.328 105.613 17.592 105.613 16.664C105.613 15.864 105.829 15.144 106.261 14.504C106.693 13.848 107.325 13.328 108.157 12.944C109.005 12.56 110.021 12.368 111.205 12.368C112.965 12.368 114.349 12.8 115.357 13.664C116.365 14.528 116.949 15.664 117.109 17.072H112.861C112.781 16.64 112.589 16.312 112.285 16.088C111.997 15.848 111.605 15.728 111.109 15.728C110.725 15.728 110.429 15.8 110.221 15.944C110.029 16.088 109.933 16.288 109.933 16.544C109.933 16.864 110.117 17.112 110.485 17.288C110.853 17.448 111.445 17.616 112.261 17.792C113.237 18 114.045 18.232 114.685 18.488C115.341 18.744 115.909 19.16 116.389 19.736C116.885 20.296 117.133 21.064 117.133 22.04C117.133 22.824 116.901 23.528 116.437 24.152C115.989 24.776 115.341 25.272 114.493 25.64C113.661 25.992 112.677 26.168 111.541 26.168ZM127.39 21.992V26H125.35C121.91 26 120.19 24.296 120.19 20.888V16.448H118.534V12.536H120.19V9.272H124.918V12.536H127.366V16.448H124.918V20.96C124.918 21.328 124.998 21.592 125.158 21.752C125.334 21.912 125.622 21.992 126.022 21.992H127.39ZM128.779 19.256C128.779 17.864 129.027 16.648 129.523 15.608C130.035 14.568 130.723 13.768 131.587 13.208C132.467 12.648 133.443 12.368 134.515 12.368C135.443 12.368 136.243 12.552 136.915 12.92C137.587 13.288 138.107 13.784 138.475 14.408V12.536H143.179V26H138.475V24.128C138.107 24.752 137.579 25.248 136.891 25.616C136.219 25.984 135.427 26.168 134.515 26.168C133.443 26.168 132.467 25.888 131.587 25.328C130.723 24.768 130.035 23.968 129.523 22.928C129.027 21.872 128.779 20.648 128.779 19.256ZM138.475 19.256C138.475 18.392 138.235 17.712 137.755 17.216C137.291 16.72 136.715 16.472 136.027 16.472C135.323 16.472 134.739 16.72 134.275 17.216C133.811 17.696 133.579 18.376 133.579 19.256C133.579 20.12 133.811 20.808 134.275 21.32C134.739 21.816 135.323 22.064 136.027 22.064C136.715 22.064 137.291 21.816 137.755 21.32C138.235 20.824 138.475 20.136 138.475 19.256ZM160.356 12.536L151.812 32.408H146.7L149.916 25.424L144.396 12.536H149.628L152.46 20.168L155.196 12.536H160.356Z" fill="#2A6877"/>
<path d="M196.228 5.27C197.264 5.27 198.169 5.47067 198.944 5.872C199.728 6.264 200.33 6.83333 200.75 7.58C201.179 8.31733 201.394 9.18067 201.394 10.17C201.394 11.1593 201.179 12.018 200.75 12.746C200.33 13.474 199.728 14.034 198.944 14.426C198.169 14.8087 197.264 15 196.228 15H193.05V5.27H196.228ZM196.228 13.698C197.367 13.698 198.239 13.39 198.846 12.774C199.453 12.158 199.756 11.29 199.756 10.17C199.756 9.04067 199.453 8.15867 198.846 7.524C198.239 6.88933 197.367 6.572 196.228 6.572H194.646V13.698H196.228ZM210.046 10.954C210.046 11.2433 210.027 11.5047 209.99 11.738H204.096C204.142 12.354 204.371 12.8487 204.782 13.222C205.192 13.5953 205.696 13.782 206.294 13.782C207.152 13.782 207.759 13.4227 208.114 12.704H209.836C209.602 13.4133 209.178 13.9967 208.562 14.454C207.955 14.902 207.199 15.126 206.294 15.126C205.556 15.126 204.894 14.9627 204.306 14.636C203.727 14.3 203.27 13.8333 202.934 13.236C202.607 12.6293 202.444 11.9293 202.444 11.136C202.444 10.3427 202.602 9.64733 202.92 9.05C203.246 8.44333 203.699 7.97667 204.278 7.65C204.866 7.32333 205.538 7.16 206.294 7.16C207.022 7.16 207.67 7.31867 208.24 7.636C208.809 7.95333 209.252 8.40133 209.57 8.98C209.887 9.54933 210.046 10.2073 210.046 10.954ZM208.38 10.45C208.37 9.862 208.16 9.39067 207.75 9.036C207.339 8.68133 206.83 8.504 206.224 8.504C205.673 8.504 205.202 8.68133 204.81 9.036C204.418 9.38133 204.184 9.85267 204.11 10.45H208.38ZM214.416 15.126C213.81 15.126 213.264 15.0187 212.778 14.804C212.302 14.58 211.924 14.2813 211.644 13.908C211.364 13.5253 211.215 13.1007 211.196 12.634H212.848C212.876 12.9607 213.03 13.236 213.31 13.46C213.6 13.6747 213.959 13.782 214.388 13.782C214.836 13.782 215.182 13.698 215.424 13.53C215.676 13.3527 215.802 13.1287 215.802 12.858C215.802 12.5687 215.662 12.354 215.382 12.214C215.112 12.074 214.678 11.92 214.08 11.752C213.502 11.5933 213.03 11.4393 212.666 11.29C212.302 11.1407 211.985 10.912 211.714 10.604C211.453 10.296 211.322 9.89 211.322 9.386C211.322 8.97533 211.444 8.602 211.686 8.266C211.929 7.92067 212.274 7.65 212.722 7.454C213.18 7.258 213.702 7.16 214.29 7.16C215.168 7.16 215.872 7.384 216.404 7.832C216.946 8.27067 217.235 8.87267 217.272 9.638H215.676C215.648 9.29267 215.508 9.01733 215.256 8.812C215.004 8.60667 214.664 8.504 214.234 8.504C213.814 8.504 213.492 8.58333 213.268 8.742C213.044 8.90067 212.932 9.11067 212.932 9.372C212.932 9.57733 213.007 9.75 213.156 9.89C213.306 10.03 213.488 10.142 213.702 10.226C213.917 10.3007 214.234 10.3987 214.654 10.52C215.214 10.6693 215.672 10.8233 216.026 10.982C216.39 11.1313 216.703 11.3553 216.964 11.654C217.226 11.9527 217.361 12.3493 217.37 12.844C217.37 13.2827 217.249 13.6747 217.006 14.02C216.764 14.3653 216.418 14.636 215.97 14.832C215.532 15.028 215.014 15.126 214.416 15.126ZM218.563 11.108C218.563 10.3333 218.722 9.64733 219.039 9.05C219.366 8.45267 219.804 7.99067 220.355 7.664C220.915 7.328 221.531 7.16 222.203 7.16C222.81 7.16 223.337 7.28133 223.785 7.524C224.242 7.75733 224.606 8.05133 224.877 8.406V7.286H226.487V15H224.877V13.852C224.606 14.216 224.238 14.5193 223.771 14.762C223.304 15.0047 222.772 15.126 222.175 15.126C221.512 15.126 220.906 14.958 220.355 14.622C219.804 14.2767 219.366 13.8007 219.039 13.194C218.722 12.578 218.563 11.8827 218.563 11.108ZM224.877 11.136C224.877 10.604 224.765 10.142 224.541 9.75C224.326 9.358 224.042 9.05933 223.687 8.854C223.332 8.64867 222.95 8.546 222.539 8.546C222.128 8.546 221.746 8.64867 221.391 8.854C221.036 9.05 220.747 9.344 220.523 9.736C220.308 10.1187 220.201 10.576 220.201 11.108C220.201 11.64 220.308 12.1067 220.523 12.508C220.747 12.9093 221.036 13.2173 221.391 13.432C221.755 13.6373 222.138 13.74 222.539 13.74C222.95 13.74 223.332 13.6373 223.687 13.432C224.042 13.2267 224.326 12.928 224.541 12.536C224.765 12.1347 224.877 11.668 224.877 11.136ZM244.89 5.27L242.006 15H240.2L238.156 7.636L235.986 15L234.194 15.014L231.436 5.27H233.13L235.146 13.194L237.33 5.27H239.122L241.152 13.152L243.182 5.27H244.89ZM247.018 6.264C246.729 6.264 246.486 6.166 246.29 5.97C246.094 5.774 245.996 5.53133 245.996 5.242C245.996 4.95267 246.094 4.71 246.29 4.514C246.486 4.318 246.729 4.22 247.018 4.22C247.298 4.22 247.536 4.318 247.732 4.514C247.928 4.71 248.026 4.95267 248.026 5.242C248.026 5.53133 247.928 5.774 247.732 5.97C247.536 6.166 247.298 6.264 247.018 6.264ZM247.802 7.286V15H246.206V7.286H247.802ZM252.698 15.126C252.091 15.126 251.545 15.0187 251.06 14.804C250.584 14.58 250.206 14.2813 249.926 13.908C249.646 13.5253 249.496 13.1007 249.478 12.634H251.13C251.158 12.9607 251.312 13.236 251.592 13.46C251.881 13.6747 252.24 13.782 252.67 13.782C253.118 13.782 253.463 13.698 253.706 13.53C253.958 13.3527 254.084 13.1287 254.084 12.858C254.084 12.5687 253.944 12.354 253.664 12.214C253.393 12.074 252.959 11.92 252.362 11.752C251.783 11.5933 251.312 11.4393 250.948 11.29C250.584 11.1407 250.266 10.912 249.996 10.604C249.734 10.296 249.604 9.89 249.604 9.386C249.604 8.97533 249.725 8.602 249.968 8.266C250.21 7.92067 250.556 7.65 251.004 7.454C251.461 7.258 251.984 7.16 252.572 7.16C253.449 7.16 254.154 7.384 254.686 7.832C255.227 8.27067 255.516 8.87267 255.554 9.638H253.958C253.93 9.29267 253.79 9.01733 253.538 8.812C253.286 8.60667 252.945 8.504 252.516 8.504C252.096 8.504 251.774 8.58333 251.55 8.742C251.326 8.90067 251.214 9.11067 251.214 9.372C251.214 9.57733 251.288 9.75 251.438 9.89C251.587 10.03 251.769 10.142 251.984 10.226C252.198 10.3007 252.516 10.3987 252.936 10.52C253.496 10.6693 253.953 10.8233 254.308 10.982C254.672 11.1313 254.984 11.3553 255.246 11.654C255.507 11.9527 255.642 12.3493 255.652 12.844C255.652 13.2827 255.53 13.6747 255.288 14.02C255.045 14.3653 254.7 14.636 254.252 14.832C253.813 15.028 253.295 15.126 252.698 15.126ZM256.844 11.108C256.844 10.3333 257.003 9.64733 257.32 9.05C257.647 8.45267 258.086 7.99067 258.636 7.664C259.196 7.328 259.812 7.16 260.484 7.16C261.091 7.16 261.618 7.28133 262.066 7.524C262.524 7.75733 262.888 8.05133 263.158 8.406V7.286H264.768V15H263.158V13.852C262.888 14.216 262.519 14.5193 262.052 14.762C261.586 15.0047 261.054 15.126 260.456 15.126C259.794 15.126 259.187 14.958 258.636 14.622C258.086 14.2767 257.647 13.8007 257.32 13.194C257.003 12.578 256.844 11.8827 256.844 11.108ZM263.158 11.136C263.158 10.604 263.046 10.142 262.822 9.75C262.608 9.358 262.323 9.05933 261.968 8.854C261.614 8.64867 261.231 8.546 260.82 8.546C260.41 8.546 260.027 8.64867 259.672 8.854C259.318 9.05 259.028 9.344 258.804 9.736C258.59 10.1187 258.482 10.576 258.482 11.108C258.482 11.64 258.59 12.1067 258.804 12.508C259.028 12.9093 259.318 13.2173 259.672 13.432C260.036 13.6373 260.419 13.74 260.82 13.74C261.231 13.74 261.614 13.6373 261.968 13.432C262.323 13.2267 262.608 12.928 262.822 12.536C263.046 12.1347 263.158 11.668 263.158 11.136ZM268.726 8.588V12.858C268.726 13.1473 268.792 13.3573 268.922 13.488C269.062 13.6093 269.296 13.67 269.622 13.67H270.602V15H269.342C268.624 15 268.073 14.832 267.69 14.496C267.308 14.16 267.116 13.614 267.116 12.858V8.588H266.206V7.286H267.116V5.368H268.726V7.286H270.602V8.588H268.726ZM271.541 11.108C271.541 10.3333 271.7 9.64733 272.017 9.05C272.344 8.45267 272.783 7.99067 273.333 7.664C273.893 7.328 274.509 7.16 275.181 7.16C275.788 7.16 276.315 7.28133 276.763 7.524C277.221 7.75733 277.585 8.05133 277.855 8.406V7.286H279.465V15H277.855V13.852C277.585 14.216 277.216 14.5193 276.749 14.762C276.283 15.0047 275.751 15.126 275.153 15.126C274.491 15.126 273.884 14.958 273.333 14.622C272.783 14.2767 272.344 13.8007 272.017 13.194C271.7 12.578 271.541 11.8827 271.541 11.108ZM277.855 11.136C277.855 10.604 277.743 10.142 277.519 9.75C277.305 9.358 277.02 9.05933 276.665 8.854C276.311 8.64867 275.928 8.546 275.517 8.546C275.107 8.546 274.724 8.64867 274.369 8.854C274.015 9.05 273.725 9.344 273.501 9.736C273.287 10.1187 273.179 10.576 273.179 11.108C273.179 11.64 273.287 12.1067 273.501 12.508C273.725 12.9093 274.015 13.2173 274.369 13.432C274.733 13.6373 275.116 13.74 275.517 13.74C275.928 13.74 276.311 13.6373 276.665 13.432C277.02 13.2267 277.305 12.928 277.519 12.536C277.743 12.1347 277.855 11.668 277.855 11.136ZM194.646 34.712H197.936V36H193.05V26.27H194.646V34.712ZM198.739 32.108C198.739 31.3333 198.897 30.6473 199.215 30.05C199.541 29.4527 199.98 28.9907 200.531 28.664C201.091 28.328 201.707 28.16 202.379 28.16C202.985 28.16 203.513 28.2813 203.961 28.524C204.418 28.7573 204.782 29.0513 205.053 29.406V28.286H206.663V36H205.053V34.852C204.782 35.216 204.413 35.5193 203.947 35.762C203.48 36.0047 202.948 36.126 202.351 36.126C201.688 36.126 201.081 35.958 200.531 35.622C199.98 35.2767 199.541 34.8007 199.215 34.194C198.897 33.578 198.739 32.8827 198.739 32.108ZM205.053 32.136C205.053 31.604 204.941 31.142 204.717 30.75C204.502 30.358 204.217 30.0593 203.863 29.854C203.508 29.6487 203.125 29.546 202.715 29.546C202.304 29.546 201.921 29.6487 201.567 29.854C201.212 30.05 200.923 30.344 200.699 30.736C200.484 31.1187 200.377 31.576 200.377 32.108C200.377 32.64 200.484 33.1067 200.699 33.508C200.923 33.9093 201.212 34.2173 201.567 34.432C201.931 34.6373 202.313 34.74 202.715 34.74C203.125 34.74 203.508 34.6373 203.863 34.432C204.217 34.2267 204.502 33.928 204.717 33.536C204.941 33.1347 205.053 32.668 205.053 32.136ZM211.811 32.15L215.367 36H213.211L210.355 32.682V36H208.759V25.64H210.355V31.66L213.155 28.286H215.367L211.811 32.15ZM219.311 36.126C218.704 36.126 218.158 36.0187 217.673 35.804C217.197 35.58 216.819 35.2813 216.539 34.908C216.259 34.5253 216.11 34.1007 216.091 33.634H217.743C217.771 33.9607 217.925 34.236 218.205 34.46C218.494 34.6747 218.854 34.782 219.283 34.782C219.731 34.782 220.076 34.698 220.319 34.53C220.571 34.3527 220.697 34.1287 220.697 33.858C220.697 33.5687 220.557 33.354 220.277 33.214C220.006 33.074 219.572 32.92 218.975 32.752C218.396 32.5933 217.925 32.4393 217.561 32.29C217.197 32.1407 216.88 31.912 216.609 31.604C216.348 31.296 216.217 30.89 216.217 30.386C216.217 29.9753 216.338 29.602 216.581 29.266C216.824 28.9207 217.169 28.65 217.617 28.454C218.074 28.258 218.597 28.16 219.185 28.16C220.062 28.16 220.767 28.384 221.299 28.832C221.84 29.2707 222.13 29.8727 222.167 30.638H220.571C220.543 30.2927 220.403 30.0173 220.151 29.812C219.899 29.6067 219.558 29.504 219.129 29.504C218.709 29.504 218.387 29.5833 218.163 29.742C217.939 29.9007 217.827 30.1107 217.827 30.372C217.827 30.5773 217.902 30.75 218.051 30.89C218.2 31.03 218.382 31.142 218.597 31.226C218.812 31.3007 219.129 31.3987 219.549 31.52C220.109 31.6693 220.566 31.8233 220.921 31.982C221.285 32.1313 221.598 32.3553 221.859 32.654C222.12 32.9527 222.256 33.3493 222.265 33.844C222.265 34.2827 222.144 34.6747 221.901 35.02C221.658 35.3653 221.313 35.636 220.865 35.832C220.426 36.028 219.908 36.126 219.311 36.126ZM223.457 32.108C223.457 31.3333 223.616 30.6473 223.933 30.05C224.26 29.4527 224.699 28.9907 225.249 28.664C225.809 28.328 226.425 28.16 227.097 28.16C227.704 28.16 228.231 28.2813 228.679 28.524C229.137 28.7573 229.501 29.0513 229.771 29.406V28.286H231.381V36H229.771V34.852C229.501 35.216 229.132 35.5193 228.665 35.762C228.199 36.0047 227.667 36.126 227.069 36.126C226.407 36.126 225.8 35.958 225.249 35.622C224.699 35.2767 224.26 34.8007 223.933 34.194C223.616 33.578 223.457 32.8827 223.457 32.108ZM229.771 32.136C229.771 31.604 229.659 31.142 229.435 30.75C229.221 30.358 228.936 30.0593 228.581 29.854C228.227 29.6487 227.844 29.546 227.433 29.546C227.023 29.546 226.64 29.6487 226.285 29.854C225.931 30.05 225.641 30.344 225.417 30.736C225.203 31.1187 225.095 31.576 225.095 32.108C225.095 32.64 225.203 33.1067 225.417 33.508C225.641 33.9093 225.931 34.2173 226.285 34.432C226.649 34.6373 227.032 34.74 227.433 34.74C227.844 34.74 228.227 34.6373 228.581 34.432C228.936 34.2267 229.221 33.928 229.435 33.536C229.659 33.1347 229.771 32.668 229.771 32.136ZM237.37 28.16C237.976 28.16 238.518 28.286 238.994 28.538C239.479 28.79 239.857 29.1633 240.128 29.658C240.398 30.1527 240.534 30.75 240.534 31.45V36H238.952V31.688C238.952 30.9973 238.779 30.47 238.434 30.106C238.088 29.7327 237.617 29.546 237.02 29.546C236.422 29.546 235.946 29.7327 235.592 30.106C235.246 30.47 235.074 30.9973 235.074 31.688V36H233.478V28.286H235.074V29.168C235.335 28.8507 235.666 28.6033 236.068 28.426C236.478 28.2487 236.912 28.16 237.37 28.16ZM242.038 32.108C242.038 31.3333 242.196 30.6473 242.514 30.05C242.84 29.4527 243.279 28.9907 243.83 28.664C244.39 28.328 245.006 28.16 245.678 28.16C246.284 28.16 246.812 28.2813 247.26 28.524C247.717 28.7573 248.081 29.0513 248.352 29.406V28.286H249.962V36H248.352V34.852C248.081 35.216 247.712 35.5193 247.246 35.762C246.779 36.0047 246.247 36.126 245.65 36.126C244.987 36.126 244.38 35.958 243.83 35.622C243.279 35.2767 242.84 34.8007 242.514 34.194C242.196 33.578 242.038 32.8827 242.038 32.108ZM248.352 32.136C248.352 31.604 248.24 31.142 248.016 30.75C247.801 30.358 247.516 30.0593 247.162 29.854C246.807 29.6487 246.424 29.546 246.014 29.546C245.603 29.546 245.22 29.6487 244.866 29.854C244.511 30.05 244.222 30.344 243.998 30.736C243.783 31.1187 243.676 31.576 243.676 32.108C243.676 32.64 243.783 33.1067 243.998 33.508C244.222 33.9093 244.511 34.2173 244.866 34.432C245.23 34.6373 245.612 34.74 246.014 34.74C246.424 34.74 246.807 34.6373 247.162 34.432C247.516 34.2267 247.801 33.928 248.016 33.536C248.24 33.1347 248.352 32.668 248.352 32.136ZM261.057 36L257.291 31.646V36H255.695V26.27H257.291V30.708L261.071 26.27H263.073L258.845 31.142L263.143 36H261.057ZM264.022 32.108C264.022 31.3333 264.181 30.6473 264.498 30.05C264.825 29.4527 265.263 28.9907 265.814 28.664C266.374 28.328 266.99 28.16 267.662 28.16C268.269 28.16 268.796 28.2813 269.244 28.524C269.701 28.7573 270.065 29.0513 270.336 29.406V28.286H271.946V36H270.336V34.852C270.065 35.216 269.697 35.5193 269.23 35.762C268.763 36.0047 268.231 36.126 267.634 36.126C266.971 36.126 266.365 35.958 265.814 35.622C265.263 35.2767 264.825 34.8007 264.498 34.194C264.181 33.578 264.022 32.8827 264.022 32.108ZM270.336 32.136C270.336 31.604 270.224 31.142 270 30.75C269.785 30.358 269.501 30.0593 269.146 29.854C268.791 29.6487 268.409 29.546 267.998 29.546C267.587 29.546 267.205 29.6487 266.85 29.854C266.495 30.05 266.206 30.344 265.982 30.736C265.767 31.1187 265.66 31.576 265.66 32.108C265.66 32.64 265.767 33.1067 265.982 33.508C266.206 33.9093 266.495 34.2173 266.85 34.432C267.214 34.6373 267.597 34.74 267.998 34.74C268.409 34.74 268.791 34.6373 269.146 34.432C269.501 34.2267 269.785 33.928 270 33.536C270.224 33.1347 270.336 32.668 270.336 32.136ZM283.38 28.16C283.987 28.16 284.528 28.286 285.004 28.538C285.49 28.79 285.868 29.1633 286.138 29.658C286.418 30.1527 286.558 30.75 286.558 31.45V36H284.976V31.688C284.976 30.9973 284.804 30.47 284.458 30.106C284.113 29.7327 283.642 29.546 283.044 29.546C282.447 29.546 281.971 29.7327 281.616 30.106C281.271 30.47 281.098 30.9973 281.098 31.688V36H279.516V31.688C279.516 30.9973 279.344 30.47 278.998 30.106C278.653 29.7327 278.182 29.546 277.584 29.546C276.987 29.546 276.511 29.7327 276.156 30.106C275.811 30.47 275.638 30.9973 275.638 31.688V36H274.042V28.286H275.638V29.168C275.9 28.8507 276.231 28.6033 276.632 28.426C277.034 28.2487 277.463 28.16 277.92 28.16C278.536 28.16 279.087 28.2907 279.572 28.552C280.058 28.8133 280.431 29.1913 280.692 29.686C280.926 29.2193 281.29 28.8507 281.784 28.58C282.279 28.3 282.811 28.16 283.38 28.16ZM291.935 36.126C291.207 36.126 290.549 35.9627 289.961 35.636C289.373 35.3 288.911 34.8333 288.575 34.236C288.239 33.6293 288.071 32.9293 288.071 32.136C288.071 31.352 288.244 30.6567 288.589 30.05C288.934 29.4433 289.406 28.9767 290.003 28.65C290.6 28.3233 291.268 28.16 292.005 28.16C292.742 28.16 293.41 28.3233 294.007 28.65C294.604 28.9767 295.076 29.4433 295.421 30.05C295.766 30.6567 295.939 31.352 295.939 32.136C295.939 32.92 295.762 33.6153 295.407 34.222C295.052 34.8287 294.567 35.3 293.951 35.636C293.344 35.9627 292.672 36.126 291.935 36.126ZM291.935 34.74C292.346 34.74 292.728 34.642 293.083 34.446C293.447 34.25 293.741 33.956 293.965 33.564C294.189 33.172 294.301 32.696 294.301 32.136C294.301 31.576 294.194 31.1047 293.979 30.722C293.764 30.33 293.48 30.036 293.125 29.84C292.77 29.644 292.388 29.546 291.977 29.546C291.566 29.546 291.184 29.644 290.829 29.84C290.484 30.036 290.208 30.33 290.003 30.722C289.798 31.1047 289.695 31.576 289.695 32.136C289.695 32.9667 289.905 33.6107 290.325 34.068C290.754 34.516 291.291 34.74 291.935 34.74ZM298.329 27.264C298.039 27.264 297.797 27.166 297.601 26.97C297.405 26.774 297.307 26.5313 297.307 26.242C297.307 25.9527 297.405 25.71 297.601 25.514C297.797 25.318 298.039 25.22 298.329 25.22C298.609 25.22 298.847 25.318 299.043 25.514C299.239 25.71 299.337 25.9527 299.337 26.242C299.337 26.5313 299.239 26.774 299.043 26.97C298.847 27.166 298.609 27.264 298.329 27.264ZM299.113 37.512C299.113 38.268 298.921 38.814 298.539 39.15C298.165 39.4953 297.619 39.668 296.901 39.668H296.075V38.324H296.621C296.947 38.324 297.176 38.2587 297.307 38.128C297.447 38.0067 297.517 37.8013 297.517 37.512V28.286H299.113V37.512ZM300.676 32.108C300.676 31.3333 300.835 30.6473 301.152 30.05C301.479 29.4527 301.918 28.9907 302.468 28.664C303.028 28.328 303.644 28.16 304.316 28.16C304.923 28.16 305.45 28.2813 305.898 28.524C306.356 28.7573 306.72 29.0513 306.99 29.406V28.286H308.6V36H306.99V34.852C306.72 35.216 306.351 35.5193 305.884 35.762C305.418 36.0047 304.886 36.126 304.288 36.126C303.626 36.126 303.019 35.958 302.468 35.622C301.918 35.2767 301.479 34.8007 301.152 34.194C300.835 33.578 300.676 32.8827 300.676 32.108ZM306.99 32.136C306.99 31.604 306.878 31.142 306.654 30.75C306.44 30.358 306.155 30.0593 305.8 29.854C305.446 29.6487 305.063 29.546 304.652 29.546C304.242 29.546 303.859 29.6487 303.504 29.854C303.15 30.05 302.86 30.344 302.636 30.736C302.422 31.1187 302.314 31.576 302.314 32.108C302.314 32.64 302.422 33.1067 302.636 33.508C302.86 33.9093 303.15 34.2173 303.504 34.432C303.868 34.6373 304.251 34.74 304.652 34.74C305.063 34.74 305.446 34.6373 305.8 34.432C306.155 34.2267 306.44 33.928 306.654 33.536C306.878 33.1347 306.99 32.668 306.99 32.136ZM314.588 28.16C315.195 28.16 315.736 28.286 316.212 28.538C316.698 28.79 317.076 29.1633 317.346 29.658C317.617 30.1527 317.752 30.75 317.752 31.45V36H316.17V31.688C316.17 30.9973 315.998 30.47 315.652 30.106C315.307 29.7327 314.836 29.546 314.238 29.546C313.641 29.546 313.165 29.7327 312.81 30.106C312.465 30.47 312.292 30.9973 312.292 31.688V36H310.696V28.286H312.292V29.168C312.554 28.8507 312.885 28.6033 313.286 28.426C313.697 28.2487 314.131 28.16 314.588 28.16ZM322.896 28.16C323.494 28.16 324.021 28.2813 324.478 28.524C324.945 28.7573 325.309 29.0513 325.57 29.406V28.286H327.18V36.126C327.18 36.8353 327.031 37.4653 326.732 38.016C326.434 38.576 326 39.0147 325.43 39.332C324.87 39.6493 324.198 39.808 323.414 39.808C322.369 39.808 321.501 39.5607 320.81 39.066C320.12 38.5807 319.728 37.918 319.634 37.078H321.216C321.338 37.4793 321.594 37.8013 321.986 38.044C322.388 38.296 322.864 38.422 323.414 38.422C324.058 38.422 324.576 38.226 324.968 37.834C325.37 37.442 325.57 36.8727 325.57 36.126V34.838C325.3 35.202 324.931 35.51 324.464 35.762C324.007 36.0047 323.484 36.126 322.896 36.126C322.224 36.126 321.608 35.958 321.048 35.622C320.498 35.2767 320.059 34.8007 319.732 34.194C319.415 33.578 319.256 32.8827 319.256 32.108C319.256 31.3333 319.415 30.6473 319.732 30.05C320.059 29.4527 320.498 28.9907 321.048 28.664C321.608 28.328 322.224 28.16 322.896 28.16ZM325.57 32.136C325.57 31.604 325.458 31.142 325.234 30.75C325.02 30.358 324.735 30.0593 324.38 29.854C324.026 29.6487 323.643 29.546 323.232 29.546C322.822 29.546 322.439 29.6487 322.084 29.854C321.73 30.05 321.44 30.344 321.216 30.736C321.002 31.1187 320.894 31.576 320.894 32.108C320.894 32.64 321.002 33.1067 321.216 33.508C321.44 33.9093 321.73 34.2173 322.084 34.432C322.448 34.6373 322.831 34.74 323.232 34.74C323.643 34.74 324.026 34.6373 324.38 34.432C324.735 34.2267 325.02 33.928 325.234 33.536C325.458 33.1347 325.57 32.668 325.57 32.136Z" fill="black"/>
<path d="M173 5V36" stroke="black" stroke-linecap="round"/>
</svg>